<svg width="223" height="84" viewBox="0 0 223 84" fill="none" xmlns="http://www.w3.org/2000/svg">
    <path d="M100.915 28.7412V35.4371H94.6973V51.9192H87.0927V35.4371H80.8755V28.7412H100.915Z" fill="#254289" />
    <path d="M112.167 28.7412C118.025 28.7412 122.546 30.8015 122.546 37.2914C122.546 43.7812 118.075 45.8415 112.167 45.8415H109.701V51.9192H102.096V28.7412H112.167ZM112.116 35.0766H109.701V39.6092H112.116C113.863 39.6092 114.993 38.9395 114.993 37.3428C114.942 35.6946 113.863 35.0766 112.116 35.0766Z" fill="#254289" />
    <path d="M137.96 51.9192V44.9659C137.96 43.7297 138.012 42.442 138.166 41.0514L130.356 51.9192H123.933V28.7412H131.537V35.6432C131.537 36.8793 131.485 38.2184 131.332 39.6092L139.141 28.7412H145.565V51.9192H137.96Z" fill="#254289" />
    <path d="M146.233 51.9192L154.864 28.7412H163.034L171.666 51.9192H163.959L162.983 48.8288H155.018L153.991 51.9192H146.233ZM156.715 43.3176H161.236L159.643 38.373C159.386 37.4973 159.13 36.5703 158.975 35.3856C158.821 36.5703 158.564 37.4973 158.358 38.373L156.715 43.3176Z" fill="#254289" />
    <path d="M171.207 56.451V45.5316H173.93C176.859 40.2264 177.321 34.4576 177.321 28.792H194.894V45.5316H197.874V56.451H191.143V51.97H177.989V56.451H171.207ZM181.74 45.5316H187.341V35.2303H184.052C183.744 39.2478 183.23 42.5957 181.74 45.5316Z" fill="#254289" />
    <path d="M197.565 51.9192L206.198 28.7412H214.367L223 51.9192H215.292L214.317 48.8288H206.352L205.325 51.9192H197.565ZM208.047 43.3176H212.57L210.977 38.373C210.719 37.4973 210.462 36.5703 210.308 35.3856C210.155 36.5703 209.898 37.4973 209.692 38.373L208.047 43.3176Z" fill="#254289" />
    <path d="M87.3503 60.4697H87.8128V62.633H90.9985V60.4697H91.4609V65.1568H90.9985V62.9935H87.8128V65.1568H87.3503V60.4697Z" fill="#254289" />
    <path d="M95.983 60.8818C96.2913 61.1908 96.4454 61.6029 96.4454 62.1695V65.1568H96.0343V64.3327C95.8801 64.5902 95.6747 64.8478 95.3664 65.0023C95.058 65.1568 94.7497 65.2083 94.3387 65.2083C93.8249 65.2083 93.4138 65.1054 93.1056 64.8478C92.7973 64.5902 92.6431 64.2812 92.6431 63.8691C92.6431 63.4571 92.7973 63.148 93.0542 62.9421C93.3111 62.7361 93.7735 62.5815 94.3901 62.5815H95.983V62.221C95.983 61.7574 95.8801 61.4484 95.6232 61.2423C95.3663 61.0363 95.058 60.8818 94.5956 60.8818C94.2873 60.8818 93.9791 60.9333 93.7221 61.0363C93.4138 61.1394 93.2083 61.2939 93.0027 61.4484L92.7973 61.1394C93.0542 60.9333 93.311 60.7788 93.6194 60.6242C93.9277 60.4697 94.2873 60.4697 94.647 60.4697C95.2636 60.4697 95.6747 60.5728 95.983 60.8818ZM95.4178 64.5902C95.6746 64.4357 95.8801 64.1267 96.0343 63.8177V62.9421H94.4414C93.979 62.9421 93.6708 63.0451 93.4138 63.1996C93.2083 63.3541 93.1056 63.6117 93.1056 63.8691C93.1056 64.1782 93.2083 64.4357 93.4652 64.5902C93.6708 64.7447 94.0304 64.8478 94.4414 64.8478C94.8012 64.8478 95.1608 64.7447 95.4178 64.5902Z" fill="#254289" />
    <path d="M101.84 60.467L99.4249 65.8237C99.2193 66.2358 99.0139 66.5448 98.8083 66.6993C98.5514 66.8538 98.2945 66.9568 97.9862 66.9568C97.7806 66.9568 97.5752 66.9053 97.3696 66.8538C97.164 66.8023 97.01 66.6993 96.9072 66.5448L97.1127 66.1842C97.3696 66.4418 97.6265 66.5448 97.9862 66.5448C98.1917 66.5448 98.3973 66.4932 98.5514 66.3387C98.7056 66.2358 98.8597 65.9782 99.0139 65.6692L99.2708 65.1026L97.164 60.4155H97.6265L99.5276 64.6391L101.429 60.4155H101.84V60.467Z" fill="#254289" />
    <path d="M106.055 60.4697V65.1568H105.592V63.148C105.027 63.4056 104.462 63.5601 103.896 63.5601C103.331 63.5601 102.92 63.4571 102.612 63.1996C102.304 62.9421 102.149 62.5814 102.149 62.0664V60.5212H102.612V62.0664C102.612 62.4269 102.715 62.7361 102.972 62.8906C103.228 63.0966 103.537 63.1996 103.999 63.1996C104.513 63.1996 105.027 63.0966 105.592 62.839V60.5212H106.055V60.4697Z" fill="#254289" />
    <path d="M107.698 60.4697H108.16V62.633H111.345V60.4697H111.808V65.1568H111.345V62.9935H108.16V65.1568H107.698V60.4697Z" fill="#254289" />
    <path d="M114.12 64.8983C113.76 64.6923 113.503 64.4348 113.298 64.0227C113.092 63.6107 112.989 63.2501 112.989 62.7866C112.989 62.323 113.092 61.911 113.298 61.5504C113.503 61.1899 113.76 60.8808 114.12 60.6747C114.479 60.4688 114.891 60.3657 115.302 60.3657C115.713 60.3657 116.124 60.4688 116.483 60.6747C116.843 60.8808 117.1 61.1384 117.305 61.5504C117.512 61.911 117.614 62.323 117.614 62.7866C117.614 63.2501 117.512 63.6622 117.305 64.0227C117.1 64.3833 116.843 64.6923 116.483 64.8983C116.124 65.1044 115.713 65.2073 115.302 65.2073C114.891 65.2073 114.479 65.1044 114.12 64.8983ZM116.329 64.5893C116.638 64.4348 116.843 64.1772 116.997 63.8682C117.151 63.5591 117.254 63.2501 117.254 62.838C117.254 62.426 117.151 62.1169 116.997 61.8079C116.843 61.4989 116.586 61.2929 116.329 61.0868C116.021 60.9323 115.713 60.8293 115.353 60.8293C114.993 60.8293 114.686 60.9323 114.377 61.0868C114.068 61.2413 113.863 61.4989 113.709 61.8079C113.555 62.1169 113.452 62.426 113.452 62.838C113.452 63.2501 113.555 63.5591 113.709 63.8682C113.863 64.1772 114.12 64.3833 114.377 64.5893C114.686 64.7438 114.993 64.8468 115.353 64.8468C115.713 64.8468 116.021 64.7438 116.329 64.5893Z" fill="#254289" />
    <path d="M118.489 62.5815H120.801V62.9936H118.489V62.5815Z" fill="#254289" />
    <path d="M125.169 60.8818H123.319V65.1568H122.857V60.8818H121.007V60.4697H125.117V60.8818H125.169Z" fill="#254289" />
    <path d="M129.892 62.9421H125.834C125.834 63.3025 125.936 63.6117 126.091 63.9207C126.244 64.2297 126.502 64.4357 126.809 64.5902C127.118 64.7447 127.427 64.8478 127.838 64.8478C128.145 64.8478 128.402 64.7963 128.711 64.6933C128.968 64.5902 129.174 64.4357 129.379 64.1782L129.636 64.4873C129.43 64.7447 129.174 64.8993 128.865 65.0538C128.556 65.2084 128.197 65.2599 127.838 65.2599C127.375 65.2599 126.964 65.1568 126.604 64.9508C126.244 64.7447 125.936 64.4873 125.73 64.1267C125.525 63.7662 125.423 63.3541 125.423 62.8906C125.423 62.4269 125.525 62.015 125.73 61.6544C125.936 61.2939 126.193 60.9848 126.553 60.7788C126.913 60.5728 127.272 60.4697 127.683 60.4697C128.095 60.4697 128.506 60.5728 128.813 60.7788C129.174 60.9848 129.43 61.2423 129.636 61.6029C129.842 61.9634 129.944 62.3755 129.944 62.839L129.892 62.9421ZM126.759 61.0878C126.502 61.2423 126.296 61.4484 126.142 61.7058C125.987 61.9634 125.885 62.2724 125.885 62.633H129.481C129.481 62.2724 129.379 62.015 129.224 61.7058C129.07 61.4484 128.865 61.2423 128.608 61.0878C128.351 60.9333 128.043 60.8818 127.734 60.8818C127.323 60.8302 127.016 60.9333 126.759 61.0878Z" fill="#254289" />
    <path d="M134.005 65.2076L132.413 63.0959L130.819 65.2076H130.305L132.155 62.7869L130.408 60.5205H130.922L132.413 62.4778L133.902 60.5205H134.416L132.669 62.7869L134.57 65.2076H134.005Z" fill="#254289" />
    <path d="M135.393 60.4697H135.856V62.633H139.041V60.4697H139.504V65.1568H139.041V62.9935H135.856V65.1568H135.393V60.4697Z" fill="#254289" />
    <path d="M141.146 60.4697H141.608V64.4873L144.948 60.4697H145.359V65.1568H144.897V61.1394L141.557 65.1568H141.146V60.4697Z" fill="#254289" />
    <path d="M150.397 60.4697V65.1568H149.934V63.148C149.368 63.4056 148.804 63.5601 148.238 63.5601C147.673 63.5601 147.262 63.4571 146.953 63.1996C146.646 62.9421 146.491 62.5814 146.491 62.0664V60.5212H146.953V62.0664C146.953 62.4269 147.057 62.7361 147.314 62.8906C147.571 63.0966 147.878 63.1996 148.341 63.1996C148.855 63.1996 149.368 63.0966 149.934 62.839V60.5212H150.397V60.4697Z" fill="#254289" />
    <path d="M156.099 62.9421H152.039C152.039 63.3025 152.143 63.6117 152.296 63.9207C152.45 64.2297 152.707 64.4357 153.016 64.5902C153.324 64.7447 153.633 64.8478 154.043 64.8478C154.352 64.8478 154.609 64.7963 154.917 64.6933C155.174 64.5902 155.38 64.4357 155.585 64.1782L155.842 64.4873C155.637 64.7447 155.38 64.8993 155.071 65.0538C154.763 65.2084 154.404 65.2599 154.043 65.2599C153.581 65.2599 153.17 65.1568 152.811 64.9508C152.45 64.7447 152.143 64.4873 151.937 64.1267C151.732 63.7662 151.628 63.3541 151.628 62.8906C151.628 62.4269 151.732 62.015 151.937 61.6544C152.143 61.2939 152.4 60.9848 152.759 60.7788C153.118 60.5728 153.479 60.4697 153.89 60.4697C154.301 60.4697 154.712 60.5728 155.02 60.7788C155.38 60.9848 155.637 61.2423 155.842 61.6029C156.048 61.9634 156.15 62.3755 156.15 62.839L156.099 62.9421ZM152.965 61.0878C152.707 61.2423 152.502 61.4484 152.348 61.7058C152.194 61.9634 152.091 62.2724 152.091 62.633H155.688C155.688 62.2724 155.585 62.015 155.431 61.7058C155.276 61.4484 155.071 61.2423 154.815 61.0878C154.558 60.9333 154.249 60.8818 153.941 60.8818C153.529 60.8302 153.222 60.9333 152.965 61.0878Z" fill="#254289" />
    <path d="M157.948 64.8965C157.589 64.6906 157.332 64.433 157.127 64.0209C156.921 63.609 156.818 63.2484 156.818 62.7848C156.818 62.3213 156.921 61.9092 157.127 61.5486C157.332 61.1881 157.589 60.8791 157.948 60.7246C158.309 60.5185 158.72 60.4155 159.182 60.4155C159.542 60.4155 159.901 60.467 160.21 60.6215C160.517 60.776 160.774 60.982 160.98 61.2911L160.672 61.5486C160.517 61.2911 160.312 61.1366 160.056 61.0336C159.799 60.9305 159.542 60.8791 159.233 60.8791C158.874 60.8791 158.514 60.9821 158.257 61.1366C157.948 61.2911 157.743 61.5486 157.589 61.8577C157.435 62.1668 157.332 62.5273 157.332 62.8879C157.332 63.2484 157.435 63.609 157.589 63.918C157.743 64.227 158 64.433 158.257 64.6391C158.565 64.7936 158.874 64.8965 159.233 64.8965C159.542 64.8965 159.799 64.8451 160.056 64.742C160.312 64.6391 160.517 64.433 160.672 64.227L160.98 64.4846C160.774 64.742 160.517 64.9996 160.21 65.1541C159.901 65.3086 159.542 65.3602 159.182 65.3602C158.72 65.2057 158.309 65.1026 157.948 64.8965Z" fill="#254289" />
    <path d="M163.601 62.9935H162.471V65.1568H162.009V60.4697H162.471V62.5815H163.601L165.348 60.4697H165.862L163.962 62.7361L166.016 65.1568H165.503L163.601 62.9935Z" fill="#254289" />
    <path d="M166.837 60.4697H167.3V64.4873L170.64 60.4697H171.051V65.1568H170.588V61.1394L167.249 65.1568H166.837V60.4697Z" fill="#254289" />
    <path d="M172.747 60.4682H173.21V64.4858L176.55 60.4682H176.961V65.1553H176.498V61.1379L173.158 65.1553H172.747V60.4682ZM173.878 59.4896C173.621 59.2836 173.518 59.026 173.518 58.6655H173.826C173.826 58.923 173.929 59.1291 174.083 59.232C174.237 59.3866 174.494 59.4381 174.751 59.4381C175.008 59.4381 175.265 59.3866 175.419 59.232C175.573 59.0775 175.676 58.8715 175.676 58.6655H176.036C176.036 59.026 175.932 59.2836 175.676 59.4896C175.419 59.6957 175.162 59.7986 174.751 59.7986C174.34 59.7986 174.135 59.6441 173.878 59.4896Z" fill="#254289" />
    <path d="M185.437 64.7963V66.393H184.974V65.1568H180.607V60.4697H181.069V64.7963H184.204V60.4697H184.666V64.7963H185.437Z" fill="#254289" />
    <path d="M190.473 62.9421H186.414C186.414 63.3025 186.518 63.6117 186.672 63.9207C186.825 64.2297 187.082 64.4357 187.391 64.5902C187.699 64.7447 188.008 64.8478 188.419 64.8478C188.726 64.8478 188.983 64.7963 189.292 64.6933C189.549 64.5902 189.755 64.4357 189.96 64.1782L190.217 64.4873C190.012 64.7447 189.755 64.8993 189.446 65.0538C189.138 65.2084 188.778 65.2599 188.419 65.2599C187.956 65.2599 187.545 65.1568 187.186 64.9508C186.825 64.7447 186.518 64.4873 186.312 64.1267C186.107 63.7662 186.003 63.3541 186.003 62.8906C186.003 62.4269 186.107 62.015 186.312 61.6544C186.518 61.2939 186.774 60.9848 187.134 60.7788C187.493 60.5728 187.854 60.4697 188.265 60.4697C188.676 60.4697 189.087 60.5728 189.394 60.7788C189.755 60.9848 190.012 61.2423 190.217 61.6029C190.423 61.9634 190.525 62.3755 190.525 62.839L190.473 62.9421ZM187.34 61.0878C187.082 61.2423 186.877 61.4484 186.723 61.7058C186.568 61.9634 186.466 62.2724 186.466 62.633H190.062C190.062 62.2724 189.96 62.015 189.806 61.7058C189.651 61.4484 189.446 61.2423 189.189 61.0878C188.933 60.9333 188.624 60.8818 188.315 60.8818C187.904 60.8302 187.597 60.9333 187.34 61.0878Z" fill="#254289" />
    <path d="M191.654 60.4697H192.117V62.633H195.302V60.4697H195.765V65.1568H195.302V62.9935H192.117V65.1568H191.654V60.4697Z" fill="#254289" />
    <path d="M200.547 60.8818H198.697V65.1568H198.235V60.8818H196.385V60.4697H200.496V60.8818H200.547Z" fill="#254289" />
    <path d="M204.809 60.7788C205.17 60.9848 205.426 61.2423 205.631 61.6029C205.837 61.9634 205.94 62.3755 205.94 62.839C205.94 63.3025 205.837 63.7146 205.631 64.0752C205.426 64.4357 205.17 64.7447 204.809 64.8993C204.45 65.1054 204.039 65.2083 203.628 65.2083C203.216 65.2083 202.857 65.1054 202.498 64.8993C202.137 64.6933 201.881 64.4357 201.726 64.0752V66.908H201.264V60.4697H201.676V61.6029C201.881 61.2423 202.137 60.9848 202.446 60.7788C202.805 60.5728 203.166 60.4697 203.577 60.4697C204.039 60.4697 204.45 60.5728 204.809 60.7788ZM204.552 64.5902C204.861 64.4357 205.067 64.1782 205.22 63.8691C205.375 63.5601 205.477 63.2511 205.477 62.839C205.477 62.4269 205.375 62.1179 205.22 61.8089C205.067 61.4999 204.809 61.2939 204.552 61.0878C204.245 60.9333 203.936 60.8302 203.577 60.8302C203.216 60.8302 202.909 60.9333 202.6 61.0878C202.292 61.2423 202.087 61.4999 201.932 61.8089C201.778 62.1179 201.676 62.4269 201.676 62.839C201.676 63.2511 201.778 63.5601 201.932 63.8691C202.087 64.1782 202.343 64.3843 202.6 64.5902C202.909 64.7447 203.216 64.8478 203.577 64.8478C203.936 64.7963 204.296 64.7447 204.552 64.5902Z" fill="#254289" />
    <path d="M36.2763 83.4924L35.7624 83.2864C17.9843 75.6119 6.26916 60.6234 1.90168 39.9177C-1.38677 24.4142 0.565749 11.383 0.668512 10.8164L0.771277 9.99231L36.2763 0L71.7299 9.99231L71.8326 10.8164C71.9354 11.383 73.8879 24.4142 70.5995 39.9692C66.232 60.6749 54.5168 75.6633 36.7387 83.3379L36.2763 83.4924ZM3.08347 12.0526C2.7238 15.143 1.69615 26.5774 4.4194 39.5056C8.63273 59.3872 19.3716 73.2426 36.2249 80.711C53.1296 73.2426 63.8684 59.3357 68.0817 39.4542C70.805 26.526 69.7774 15.143 69.4177 12.1041L36.2763 2.67835L3.08347 12.0526Z" fill="#254289" />
    <path d="M66.4884 14.8844L36.2757 6.48877L6.01175 14.8844C6.01175 14.8844 1.28461 59.7467 36.2757 77.053C71.2156 59.6953 66.4884 14.8844 66.4884 14.8844ZM22.5568 23.4345H49.6351L51.6904 25.4948H20.2959L22.5568 23.4345ZM32.5763 35.0235V56.7078L30.4696 54.699C30.4696 54.699 30.4696 40.1226 30.4696 37.4443C30.4696 34.8175 28.2088 35.178 28.2088 35.178H22.6081L20.2959 32.8603C20.2959 32.8603 28.2088 32.8603 30.4183 32.8603C32.6276 32.9117 32.5763 35.0235 32.5763 35.0235ZM49.9434 35.2295H44.2914C44.2914 35.2295 42.0306 34.8689 42.0306 37.4958C42.0306 40.1226 42.0306 54.7506 42.0306 54.7506L39.9239 56.7594V35.0235C39.9239 35.0235 39.8726 32.8603 42.0819 32.8603C44.2914 32.8603 52.2042 32.8603 52.2042 32.8603L49.9434 35.2295ZM54.3108 30.903H54.1567C53.8484 30.3879 53.2832 30.0788 52.6667 30.0788C52.0501 30.0788 51.4849 30.4394 51.1766 30.903H41.6709C41.6709 30.903 38.4852 31.2636 38.4852 34.0964C38.4852 36.2081 38.4852 49.1363 38.4852 55.3687C37.8173 55.6262 37.3034 56.2957 37.3034 57.0684C37.3034 57.841 37.8173 58.5106 38.4852 58.7681C38.4852 58.8196 38.4852 58.8711 38.4852 58.8711L36.2757 60.7254L34.0663 58.8711C34.0663 58.8711 34.0663 58.8196 34.0663 58.7681C34.7343 58.5106 35.2481 57.841 35.2481 57.0684C35.2481 56.2957 34.7343 55.6262 34.0663 55.3687C34.0663 49.0848 34.0663 36.2081 34.0663 34.0964C34.0663 31.2636 30.8806 30.903 30.8806 30.903H21.375C21.0667 30.3879 20.5015 30.0788 19.8849 30.0788C19.2683 30.0788 18.7031 30.4394 18.3948 30.903H18.2406L16.6478 29.1517L18.2406 27.555H18.3435C18.6004 28.1731 19.217 28.5851 19.9363 28.5851C20.6557 28.5851 21.2722 28.1731 21.5292 27.555H50.8683C51.1252 28.1731 51.7418 28.5851 52.4611 28.5851C53.1805 28.5851 53.7971 28.1731 54.054 27.555H54.1567L55.7495 29.1517L54.3108 30.903Z" fill="#254289" />
</svg>
    