<svg width="301" height="346" viewBox="0 0 301 346" fill="none" xmlns="http://www.w3.org/2000/svg">
    <path d="M150.568 345.022L152.694 344.171C226.235 312.456 274.696 250.519 292.763 164.955C306.366 100.889 298.289 47.0387 297.864 44.6973L297.439 41.2919L150.568 0L3.90979 41.2919L3.48486 44.6973C3.05991 47.0387 -5.01709 100.889 8.58594 165.168C26.6526 250.731 75.1138 312.669 148.655 344.383L150.568 345.022ZM287.874 49.8059C289.362 62.5765 293.613 109.828 282.348 163.252C264.919 245.41 220.496 302.666 150.781 333.528C80.8523 302.666 36.4298 245.197 19.001 163.039C7.7356 109.615 11.9868 62.5765 13.4745 50.0185L150.568 11.0679L287.874 49.8059Z" fill="white" />
    <path d="M25.8315 61.4212L150.57 26.7325L275.52 61.4212C275.52 61.4212 295.037 246.783 150.57 318.288C6.31464 246.57 25.8315 61.4212 25.8315 61.4212ZM207.211 96.7486H95.4132L86.9276 105.261H216.545L207.211 96.7486ZM165.844 144.632V234.227L174.541 225.927C174.541 225.927 174.541 165.7 174.541 154.634C174.541 143.78 183.876 145.27 183.876 145.27H206.999L216.545 135.694C216.545 135.694 183.876 135.694 174.753 135.694C165.632 135.906 165.844 144.632 165.844 144.632ZM94.1404 145.483H117.476C117.476 145.483 126.81 143.993 126.81 154.847C126.81 165.7 126.81 226.14 126.81 226.14L135.508 234.44V144.632C135.508 144.632 135.72 135.694 126.598 135.694C117.476 135.694 84.8065 135.694 84.8065 135.694L94.1404 145.483ZM76.1089 127.607H76.745C78.0179 125.479 80.3514 124.201 82.8971 124.201C85.4427 124.201 87.7763 125.691 89.0491 127.607H128.295C128.295 127.607 141.448 129.096 141.448 140.801C141.448 149.526 141.448 202.943 141.448 228.693C144.205 229.758 146.327 232.524 146.327 235.716C146.327 238.909 144.205 241.675 141.448 242.739C141.448 242.952 141.448 243.165 141.448 243.165L150.57 250.826L159.692 243.165C159.692 243.165 159.692 242.952 159.692 242.739C156.934 241.675 154.812 238.909 154.812 235.716C154.812 232.524 156.934 229.758 159.692 228.693C159.692 202.73 159.692 149.526 159.692 140.801C159.692 129.096 172.844 127.607 172.844 127.607H212.09C213.363 125.479 215.696 124.201 218.242 124.201C220.788 124.201 223.121 125.691 224.394 127.607H225.031L231.607 120.371L225.031 113.774H224.606C223.545 116.327 221 118.03 218.03 118.03C215.06 118.03 212.514 116.327 211.453 113.774H90.3219C89.2612 116.327 86.7155 118.03 83.7458 118.03C80.7756 118.03 78.2299 116.327 77.1692 113.774H76.745L70.1689 120.371L76.1089 127.607Z" fill="white" />
</svg>